<svg xmlns="http://www.w3.org/2000/svg" xmlns:xlink="http://www.w3.org/1999/xlink" width="321" zoomAndPan="magnify" viewBox="0 0 240.75 141.750002" height="188" preserveAspectRatio="xMidYMid meet" version="1.0"><defs><g/><clipPath id="8b1e10a953"><path d="M 0.0859375 0 L 240.414062 0 L 240.414062 141.5 L 0.0859375 141.5 Z M 0.0859375 0 " clip-rule="nonzero"/></clipPath></defs><g clip-path="url(#8b1e10a953)"><path fill="#ffffff" d="M 0.0859375 0 L 240.664062 0 L 240.664062 141.648438 L 0.0859375 141.648438 Z M 0.0859375 0 " fill-opacity="1" fill-rule="nonzero"/><path fill="#ffffff" d="M 0.0859375 0 L 240.664062 0 L 240.664062 141.648438 L 0.0859375 141.648438 Z M 0.0859375 0 " fill-opacity="1" fill-rule="nonzero"/></g><g fill="#414042" fill-opacity="1"><g transform="translate(136.160942, 82.799434)"><g><path d="M 0 0 L 12.683594 0 L 12.683594 -0.078125 C 11.054688 -0.199219 9.066406 -0.636719 8.152344 -1.390625 C 7.238281 -2.1875 6.71875 -3.0625 6.519531 -4.09375 C 6.363281 -5.128906 6.28125 -7.078125 6.28125 -9.902344 L 6.28125 -32.089844 L 21.113281 0 L 22.347656 0 L 36.382812 -33.441406 L 36.382812 -8.113281 C 36.382812 -5.128906 36.304688 -3.261719 36.144531 -2.425781 C 35.945312 -1.628906 35.589844 -1.035156 34.992188 -0.636719 C 34.433594 -0.277344 33.402344 -0.078125 31.890625 -0.078125 L 30.617188 -0.078125 L 30.617188 0 L 47.558594 0 L 47.558594 -0.078125 L 46.007812 -0.078125 C 44.375 -0.078125 43.300781 -0.277344 42.746094 -0.714844 C 42.1875 -1.113281 41.832031 -1.75 41.671875 -2.625 C 41.550781 -3.5 41.472656 -5.328125 41.472656 -8.113281 L 41.472656 -26.917969 C 41.472656 -29.863281 41.550781 -31.730469 41.75 -32.527344 C 41.949219 -33.28125 42.308594 -33.839844 42.824219 -34.117188 C 43.382812 -34.394531 44.535156 -34.554688 46.246094 -34.554688 L 47.558594 -34.554688 L 47.558594 -34.632812 L 36.703125 -34.632812 L 24.015625 -4.414062 L 10.777344 -34.632812 L 0 -34.632812 L 0 -34.554688 L 0.953125 -34.554688 C 2.742188 -34.554688 4.253906 -34.394531 4.773438 -34.078125 C 5.289062 -33.757812 5.765625 -33.203125 5.925781 -32.367188 C 6.082031 -31.570312 6.082031 -29.742188 6.082031 -26.917969 L 6.082031 -10.058594 C 6.082031 -7.117188 5.964844 -5.128906 5.765625 -4.054688 C 5.527344 -2.980469 4.96875 -2.066406 4.015625 -1.3125 C 3.0625 -0.597656 1.511719 -0.160156 0 -0.078125 Z M 0 0 "/></g></g></g><g fill="#414042" fill-opacity="1"><g transform="translate(108.875725, 85.704272)"><g><path d="M 9.007812 -2.910156 C 12.097656 -4.285156 14.324219 -7.125 15.675781 -11.46875 C 19.417969 -9.386719 22.769531 -9.027344 25.894531 -10.417969 C 27.300781 -11.042969 28.363281 -12.0625 29.101562 -13.230469 C 29.882812 -14.503906 30.101562 -15.902344 29.824219 -17.378906 L 29.648438 -17.300781 C 29.464844 -15.535156 28.667969 -14.300781 27.160156 -13.628906 C 26.140625 -13.175781 23.953125 -12.707031 22.703125 -12.867188 C 21.492188 -13.042969 19.503906 -14.011719 16.726562 -15.71875 C 17.003906 -16.894531 17.226562 -18.757812 17.128906 -21.152344 C 17.003906 -24.082031 17.273438 -26.222656 17.777344 -27.453125 C 18.421875 -28.75 19.246094 -29.917969 20.304688 -30.847656 L 20.242188 -30.988281 L 10.128906 -26.496094 L 10.191406 -26.355469 C 12.769531 -27.078125 15.359375 -26.085938 16.199219 -24.1875 C 16.511719 -23.488281 16.699219 -22.308594 16.816406 -20.722656 C 16.863281 -19.101562 16.738281 -17.492188 16.40625 -15.871094 C 14.382812 -17.117188 11.421875 -18.953125 9.273438 -20.101562 C 7.160156 -21.347656 4.96875 -22.6875 2.6875 -23.941406 C 6.21875 -28.203125 7.4375 -31.605469 6.375 -33.992188 C 5.691406 -35.539062 4.445312 -36.539062 2.570312 -36.882812 C 0.828125 -37.203125 -0.914062 -37.058594 -2.601562 -36.308594 C -4.566406 -35.433594 -5.832031 -34.117188 -6.515625 -32.253906 C -7.222656 -30.34375 -7.199219 -28.589844 -6.496094 -27.007812 C -5.5625 -24.902344 -2.761719 -22.488281 0.269531 -20.679688 C -1.917969 -17.269531 -3.527344 -15.125 -3.972656 -13.289062 C -4.417969 -11.449219 -4.246094 -9.550781 -3.371094 -7.582031 C -2.863281 -6.253906 -2.085938 -5.167969 -1.09375 -4.351562 C -0.03125 -3.476562 0.992188 -2.878906 2.226562 -2.460938 C 3.414062 -2.0625 4.082031 -1.980469 5.390625 -2.058594 C 6.703125 -2.136719 7.882812 -2.410156 9.007812 -2.910156 Z M 2.308594 -23.941406 C -0.753906 -25.820312 -3.210938 -27.753906 -3.898438 -29.296875 C -4.414062 -30.457031 -5.035156 -32.703125 -4.660156 -33.753906 C -4.371094 -34.808594 -3.59375 -35.613281 -2.472656 -36.113281 C -1.875 -36.378906 -1.316406 -36.542969 -0.714844 -36.515625 C -0.183594 -36.542969 0.359375 -36.363281 0.867188 -36.167969 C 1.375 -35.972656 1.859375 -35.640625 2.234375 -35.179688 C 2.679688 -34.746094 3.371094 -33.371094 3.652344 -32.738281 C 4.621094 -30.5625 4.675781 -27.222656 2.308594 -23.941406 Z M 10.621094 -4.386719 C 8.738281 -3.421875 6.679688 -3.515625 4.316406 -4.484375 C 1.972656 -5.585938 0.140625 -7.632812 -0.734375 -9.597656 C -1.296875 -10.859375 -1.980469 -13.628906 -1.675781 -15.402344 C -1.355469 -17.140625 -0.640625 -18.847656 0.507812 -20.617188 C 2.402344 -19.570312 4.601562 -18.402344 6.925781 -16.957031 C 9.203125 -15.527344 12.734375 -13.355469 15.457031 -11.578125 C 14.324219 -8.636719 12.71875 -5.441406 10.621094 -4.386719 Z M 10.621094 -4.386719 "/></g></g></g><g fill="#414042" fill-opacity="1"><g transform="translate(67.395197, 82.799434)"><g><path d="M 7.4375 0 L 25.089844 0 L 25.089844 -0.078125 L 23.378906 -0.078125 C 21.789062 -0.078125 20.714844 -0.277344 20.121094 -0.714844 C 19.5625 -1.113281 19.207031 -1.75 19.085938 -2.625 C 18.96875 -3.5 18.886719 -5.328125 18.886719 -8.113281 L 18.886719 -34.554688 L 24.574219 -34.554688 C 26.523438 -34.554688 27.875 -34.433594 28.667969 -34.195312 C 29.464844 -33.957031 30.261719 -33.320312 30.9375 -32.289062 C 31.613281 -31.253906 32.167969 -29.582031 32.566406 -27.238281 L 32.644531 -27.238281 L 32.488281 -34.632812 L 0.199219 -34.632812 L 0 -27.238281 L 0.160156 -27.238281 C 0.515625 -29.464844 0.992188 -31.132812 1.710938 -32.246094 C 2.425781 -33.363281 3.140625 -34.039062 3.9375 -34.234375 C 4.730469 -34.433594 6.242188 -34.554688 8.550781 -34.554688 L 13.796875 -34.554688 L 13.796875 -8.113281 C 13.796875 -5.128906 13.71875 -3.261719 13.519531 -2.425781 C 13.359375 -1.628906 13.003906 -1.035156 12.40625 -0.636719 C 11.847656 -0.277344 10.777344 -0.078125 9.265625 -0.078125 L 7.4375 -0.078125 Z M 7.4375 0 "/></g></g></g><g fill="#414042" fill-opacity="1"><g transform="translate(90.575383, 101.189734)"><g><path d="M 5.121094 -4.835938 L 5.121094 -5.902344 L 0.515625 -5.902344 L 0.515625 0 L 1.863281 0 L 1.863281 -2.40625 L 4.820312 -2.40625 L 4.820312 -3.40625 L 1.863281 -3.40625 L 1.863281 -4.835938 Z M 5.121094 -4.835938 "/></g></g></g><g fill="#414042" fill-opacity="1"><g transform="translate(97.541218, 101.189734)"><g><path d="M 3.515625 0.152344 C 5.777344 0.152344 6.621094 -1.320312 6.621094 -2.945312 C 6.621094 -4.542969 5.777344 -6.050781 3.515625 -6.050781 C 1.25 -6.050781 0.398438 -4.550781 0.398438 -2.945312 C 0.398438 -1.3125 1.25 0.152344 3.515625 0.152344 Z M 1.808594 -2.945312 C 1.808594 -4.25 2.21875 -4.953125 3.515625 -4.953125 C 4.808594 -4.953125 5.21875 -4.25 5.21875 -2.945312 C 5.21875 -1.660156 4.808594 -0.957031 3.515625 -0.957031 C 2.21875 -0.957031 1.808594 -1.660156 1.808594 -2.945312 Z M 1.808594 -2.945312 "/></g></g></g><g fill="#414042" fill-opacity="1"><g transform="translate(106.033251, 101.189734)"><g><path d="M 3.515625 0.152344 C 5.777344 0.152344 6.621094 -1.320312 6.621094 -2.945312 C 6.621094 -4.542969 5.777344 -6.050781 3.515625 -6.050781 C 1.25 -6.050781 0.398438 -4.550781 0.398438 -2.945312 C 0.398438 -1.3125 1.25 0.152344 3.515625 0.152344 Z M 1.808594 -2.945312 C 1.808594 -4.25 2.21875 -4.953125 3.515625 -4.953125 C 4.808594 -4.953125 5.21875 -4.25 5.21875 -2.945312 C 5.21875 -1.660156 4.808594 -0.957031 3.515625 -0.957031 C 2.21875 -0.957031 1.808594 -1.660156 1.808594 -2.945312 Z M 1.808594 -2.945312 "/></g></g></g><g fill="#414042" fill-opacity="1"><g transform="translate(114.525284, 101.189734)"><g><path d="M 3.355469 -5.902344 L 0.515625 -5.902344 L 0.515625 0 L 3.355469 0 C 5.269531 0 6.140625 -1.402344 6.140625 -2.964844 C 6.140625 -4.515625 5.269531 -5.902344 3.355469 -5.902344 Z M 3.050781 -1.074219 L 1.863281 -1.074219 L 1.863281 -4.835938 L 3.050781 -4.835938 C 4.25 -4.835938 4.738281 -4.222656 4.738281 -2.964844 C 4.738281 -1.710938 4.257812 -1.074219 3.050781 -1.074219 Z M 3.050781 -1.074219 "/></g></g></g><g fill="#414042" fill-opacity="1"><g transform="translate(122.476048, 101.189734)"><g><path d="M 1.871094 -1.074219 L 1.871094 -5.902344 L 0.515625 -5.902344 L 0.515625 0 L 4.632812 0 L 4.632812 -1.074219 Z M 1.871094 -1.074219 "/></g></g></g><g fill="#414042" fill-opacity="1"><g transform="translate(128.749764, 101.189734)"><g><path d="M 5.121094 0 L 6.476562 0 L 4.402344 -5.902344 L 2.34375 -5.902344 L 0.265625 0 L 1.625 0 L 2.050781 -1.207031 L 4.695312 -1.207031 Z M 2.414062 -2.246094 L 3.371094 -4.96875 L 4.332031 -2.246094 Z M 2.414062 -2.246094 "/></g></g></g><g fill="#414042" fill-opacity="1"><g transform="translate(136.957849, 101.189734)"><g><path d="M 4.355469 -3.042969 C 5.03125 -3.1875 5.574219 -3.578125 5.574219 -4.445312 C 5.574219 -5.246094 5.066406 -5.902344 3.808594 -5.902344 L 0.515625 -5.902344 L 0.515625 0 L 3.746094 0 C 5.003906 0 5.652344 -0.613281 5.652344 -1.605469 C 5.652344 -2.546875 5.09375 -2.929688 4.355469 -3.042969 Z M 3.40625 -4.878906 C 3.964844 -4.878906 4.160156 -4.632812 4.160156 -4.179688 C 4.160156 -3.753906 3.949219 -3.46875 3.363281 -3.46875 L 1.863281 -3.46875 L 1.863281 -4.878906 Z M 3.441406 -1.03125 L 1.863281 -1.03125 L 1.863281 -2.566406 L 3.363281 -2.566406 C 4.011719 -2.566406 4.25 -2.261719 4.25 -1.792969 C 4.25 -1.359375 4.046875 -1.03125 3.441406 -1.03125 Z M 3.441406 -1.03125 "/></g></g></g><g fill="#414042" fill-opacity="1"><g transform="translate(144.438328, 101.189734)"><g><path d="M 0.347656 -1.945312 C 0.390625 -0.871094 1.054688 0.152344 3 0.152344 C 4.84375 0.152344 5.5625 -0.601562 5.5625 -1.765625 C 5.5625 -2.796875 4.960938 -3.363281 3.761719 -3.496094 L 2.527344 -3.648438 C 2.042969 -3.699219 1.835938 -3.957031 1.835938 -4.304688 C 1.835938 -4.765625 2.21875 -5.058594 2.9375 -5.058594 C 3.71875 -5.058594 4.109375 -4.703125 4.179688 -4.152344 L 5.503906 -4.152344 C 5.429688 -5.199219 4.703125 -6.050781 2.9375 -6.050781 C 1.277344 -6.050781 0.480469 -5.289062 0.480469 -4.222656 C 0.480469 -3.246094 1.066406 -2.671875 2.113281 -2.546875 L 3.417969 -2.378906 C 3.941406 -2.308594 4.207031 -2.078125 4.207031 -1.632812 C 4.207031 -1.164062 3.914062 -0.851562 3.015625 -0.851562 C 2.085938 -0.851562 1.695312 -1.3125 1.660156 -1.945312 Z M 0.347656 -1.945312 "/></g></g></g></svg>