<svg xmlns="http://www.w3.org/2000/svg" xmlns:xlink="http://www.w3.org/1999/xlink" width="500" zoomAndPan="magnify" viewBox="0 0 375 374.999991" height="500" preserveAspectRatio="xMidYMid meet" version="1.0"><defs><g/><clipPath id="ad81882d55"><path d="M 91.03125 91.03125 L 283.96875 91.03125 L 283.96875 283.96875 L 91.03125 283.96875 Z M 91.03125 91.03125 " clip-rule="nonzero"/></clipPath><clipPath id="78d800312d"><path d="M 187.5 283.96875 C 161.742188 283.96875 137.492188 273.945312 119.292969 255.707031 C 101.054688 237.507812 91.03125 213.257812 91.03125 187.5 C 91.03125 161.742188 101.054688 137.492188 119.292969 119.292969 C 137.492188 101.054688 161.742188 91.03125 187.5 91.03125 C 213.257812 91.03125 237.507812 101.054688 255.707031 119.292969 C 273.945312 137.53125 283.96875 161.742188 283.96875 187.5 C 283.96875 213.257812 273.945312 237.507812 255.707031 255.707031 C 237.507812 273.945312 213.257812 283.96875 187.5 283.96875 Z M 187.5 96.8125 C 163.285156 96.8125 140.5 106.261719 123.378906 123.378906 C 106.261719 140.5 96.8125 163.285156 96.8125 187.5 C 96.8125 211.714844 106.261719 234.5 123.378906 251.621094 C 140.5 268.738281 163.285156 278.1875 187.5 278.1875 C 211.714844 278.1875 234.5 268.738281 251.621094 251.621094 C 268.738281 234.5 278.1875 211.714844 278.1875 187.5 C 278.1875 163.285156 268.738281 140.5 251.621094 123.378906 C 234.5 106.261719 211.714844 96.8125 187.5 96.8125 Z M 187.5 96.8125 " clip-rule="nonzero"/></clipPath><clipPath id="eeeddd16cc"><path d="M 109.558594 190.3125 L 118.183594 190.3125 L 118.183594 198.9375 L 109.558594 198.9375 Z M 109.558594 190.3125 " clip-rule="nonzero"/></clipPath><clipPath id="71923f3533"><path d="M 113.871094 190.3125 C 111.488281 190.3125 109.558594 192.242188 109.558594 194.625 C 109.558594 197.003906 111.488281 198.9375 113.871094 198.9375 C 116.25 198.9375 118.183594 197.003906 118.183594 194.625 C 118.183594 192.242188 116.25 190.3125 113.871094 190.3125 Z M 113.871094 190.3125 " clip-rule="nonzero"/></clipPath><clipPath id="fa55a22716"><path d="M 256.816406 190.3125 L 265.441406 190.3125 L 265.441406 198.9375 L 256.816406 198.9375 Z M 256.816406 190.3125 " clip-rule="nonzero"/></clipPath><clipPath id="fc46e93785"><path d="M 261.128906 190.3125 C 258.75 190.3125 256.816406 192.242188 256.816406 194.625 C 256.816406 197.003906 258.75 198.9375 261.128906 198.9375 C 263.511719 198.9375 265.441406 197.003906 265.441406 194.625 C 265.441406 192.242188 263.511719 190.3125 261.128906 190.3125 Z M 261.128906 190.3125 " clip-rule="nonzero"/></clipPath><clipPath id="a18fb47b9e"><path d="M 143.328125 136.507812 L 231.828125 136.507812 L 231.828125 238.507812 L 143.328125 238.507812 Z M 143.328125 136.507812 " clip-rule="nonzero"/></clipPath><clipPath id="00a74a9f09"><path d="M 61.332031 61.332031 L 313.667969 61.332031 L 313.667969 313.667969 L 61.332031 313.667969 Z M 61.332031 61.332031 " clip-rule="nonzero"/></clipPath><clipPath id="dc62fad8eb"><path d="M 187.5 313.667969 C 153.816406 313.667969 122.097656 300.554688 98.296875 276.703125 C 74.445312 252.902344 61.332031 221.183594 61.332031 187.5 C 61.332031 153.816406 74.445312 122.097656 98.296875 98.296875 C 122.097656 74.445312 153.816406 61.332031 187.5 61.332031 C 221.183594 61.332031 252.902344 74.445312 276.703125 98.296875 C 300.554688 122.148438 313.667969 153.816406 313.667969 187.5 C 313.667969 221.183594 300.554688 252.902344 276.703125 276.703125 C 252.902344 300.554688 221.183594 313.667969 187.5 313.667969 Z M 187.5 68.898438 C 155.832031 68.898438 126.03125 81.25 103.640625 103.640625 C 81.25 126.03125 68.898438 155.832031 68.898438 187.5 C 68.898438 219.167969 81.25 248.96875 103.640625 271.359375 C 126.03125 293.75 155.832031 306.101562 187.5 306.101562 C 219.167969 306.101562 248.96875 293.75 271.359375 271.359375 C 293.75 248.96875 306.101562 219.167969 306.101562 187.5 C 306.101562 155.832031 293.75 126.03125 271.359375 103.640625 C 248.96875 81.25 219.167969 68.898438 187.5 68.898438 Z M 187.5 68.898438 " clip-rule="nonzero"/></clipPath></defs><g clip-path="url(#ad81882d55)"><g clip-path="url(#78d800312d)"><path fill="#212932" d="M 91.03125 91.03125 L 283.96875 91.03125 L 283.96875 283.96875 L 91.03125 283.96875 Z M 91.03125 91.03125 " fill-opacity="1" fill-rule="nonzero"/></g></g><g clip-path="url(#eeeddd16cc)"><g clip-path="url(#71923f3533)"><path fill="#212932" d="M 109.558594 190.3125 L 118.183594 190.3125 L 118.183594 198.9375 L 109.558594 198.9375 Z M 109.558594 190.3125 " fill-opacity="1" fill-rule="nonzero"/></g></g><g clip-path="url(#fa55a22716)"><g clip-path="url(#fc46e93785)"><path fill="#212932" d="M 256.816406 190.3125 L 265.441406 190.3125 L 265.441406 198.9375 L 256.816406 198.9375 Z M 256.816406 190.3125 " fill-opacity="1" fill-rule="nonzero"/></g></g><g fill="#212932" fill-opacity="1"><g transform="translate(127.302622, 240.228571)"><g><path d="M 13.171875 -0.171875 L 10.671875 -2.703125 L 3.90625 3.96875 L 2.59375 2.625 L 9.359375 -4.046875 L 6.859375 -6.578125 L 8.078125 -7.765625 L 14.390625 -1.359375 Z M 13.171875 -0.171875 "/></g></g></g><g fill="#212932" fill-opacity="1"><g transform="translate(135.621918, 248.468725)"><g><path d="M 13.265625 -1.984375 L 8.359375 -5.625 L 6.5625 -3.203125 L 10.953125 0.0625 L 9.9375 1.421875 L 5.546875 -1.84375 L 3.71875 0.625 L 8.765625 4.375 L 7.75 5.75 L 1.171875 0.875 L 7.84375 -8.125 L 14.28125 -3.359375 Z M 13.265625 -1.984375 "/></g></g></g><g fill="#212932" fill-opacity="1"><g transform="translate(146.178941, 256.075428)"><g><path d="M 10.84375 -7.09375 C 11.539062 -6.738281 12.15625 -6.253906 12.6875 -5.640625 C 13.226562 -5.035156 13.613281 -4.363281 13.84375 -3.625 L 12.234375 -2.90625 C 12.066406 -3.476562 11.796875 -4 11.421875 -4.46875 C 11.046875 -4.945312 10.609375 -5.316406 10.109375 -5.578125 C 9.109375 -6.085938 8.09375 -6.175781 7.0625 -5.84375 C 6.03125 -5.519531 5.265625 -4.867188 4.765625 -3.890625 C 4.253906 -2.898438 4.171875 -1.890625 4.515625 -0.859375 C 4.859375 0.160156 5.53125 0.925781 6.53125 1.4375 C 7.5625 1.957031 8.6875 2.03125 9.90625 1.65625 L 10.328125 3.28125 C 9.554688 3.53125 8.753906 3.625 7.921875 3.5625 C 7.085938 3.507812 6.328125 3.304688 5.640625 2.953125 C 4.179688 2.210938 3.195312 1.101562 2.6875 -0.375 C 2.1875 -1.863281 2.300781 -3.320312 3.03125 -4.75 C 3.757812 -6.164062 4.875 -7.097656 6.375 -7.546875 C 7.875 -7.992188 9.363281 -7.84375 10.84375 -7.09375 Z M 10.84375 -7.09375 "/></g></g></g><g fill="#212932" fill-opacity="1"><g transform="translate(158.508062, 262.174045)"><g><path d="M 10.71875 3.203125 L 8.90625 2.65625 L 10.234375 -1.796875 L 4.546875 -3.484375 L 3.21875 0.96875 L 1.40625 0.421875 L 4.609375 -10.3125 L 6.421875 -9.765625 L 5.03125 -5.109375 L 10.71875 -3.421875 L 12.109375 -8.078125 L 13.921875 -7.53125 Z M 10.71875 3.203125 "/></g></g></g><g fill="#212932" fill-opacity="1"><g transform="translate(173.251485, 266.310167)"><g><path d="M 11.140625 1.09375 L 9.28125 0.921875 L 4.140625 -7.671875 L 3.34375 0.328125 L 1.46875 0.140625 L 2.578125 -11.015625 L 4.421875 -10.828125 L 9.59375 -2.21875 L 10.390625 -10.234375 L 12.25 -10.0625 Z M 11.140625 1.09375 "/></g></g></g><g fill="#212932" fill-opacity="1"><g transform="translate(188.540903, 267.575767)"><g><path d="M 1.328125 -9.796875 C 2.367188 -10.984375 3.71875 -11.65625 5.375 -11.8125 C 7.039062 -11.976562 8.492188 -11.570312 9.734375 -10.59375 C 10.972656 -9.625 11.671875 -8.34375 11.828125 -6.75 C 11.984375 -5.15625 11.539062 -3.757812 10.5 -2.5625 C 9.457031 -1.375 8.101562 -0.695312 6.4375 -0.53125 C 4.78125 -0.375 3.332031 -0.785156 2.09375 -1.765625 C 0.863281 -2.742188 0.171875 -4.03125 0.015625 -5.625 C -0.140625 -7.21875 0.296875 -8.609375 1.328125 -9.796875 Z M 5.5625 -10.125 C 4.457031 -10.007812 3.546875 -9.535156 2.828125 -8.703125 C 2.117188 -7.878906 1.816406 -6.914062 1.921875 -5.8125 C 2.023438 -4.707031 2.507812 -3.804688 3.375 -3.109375 C 4.238281 -2.410156 5.21875 -2.113281 6.3125 -2.21875 C 7.40625 -2.320312 8.300781 -2.796875 9 -3.640625 C 9.707031 -4.492188 10.007812 -5.472656 9.90625 -6.578125 C 9.800781 -7.679688 9.320312 -8.570312 8.46875 -9.25 C 7.625 -9.925781 6.65625 -10.21875 5.5625 -10.125 Z M 5.5625 -10.125 "/></g></g></g><g fill="#212932" fill-opacity="1"><g transform="translate(203.885154, 265.719311)"><g><path d="M 2.8125 -2.515625 L 7.484375 -3.765625 L 7.921875 -2.109375 L 1.421875 -0.375 L -1.46875 -11.203125 L 0.359375 -11.6875 Z M 2.8125 -2.515625 "/></g></g></g><g fill="#212932" fill-opacity="1"><g transform="translate(214.570236, 262.838672)"><g><path d="M -1.921875 -9.6875 C -1.335938 -11.144531 -0.285156 -12.21875 1.234375 -12.90625 C 2.753906 -13.601562 4.257812 -13.695312 5.75 -13.1875 C 7.25 -12.675781 8.328125 -11.691406 8.984375 -10.234375 C 9.648438 -8.785156 9.6875 -7.320312 9.09375 -5.84375 C 8.5 -4.375 7.441406 -3.289062 5.921875 -2.59375 C 4.398438 -1.90625 2.894531 -1.820312 1.40625 -2.34375 C -0.0820312 -2.875 -1.15625 -3.863281 -1.8125 -5.3125 C -2.476562 -6.769531 -2.515625 -8.226562 -1.921875 -9.6875 Z M 1.96875 -11.375 C 0.945312 -10.914062 0.238281 -10.175781 -0.15625 -9.15625 C -0.5625 -8.132812 -0.53125 -7.117188 -0.0625 -6.109375 C 0.394531 -5.097656 1.140625 -4.40625 2.171875 -4.03125 C 3.210938 -3.65625 4.234375 -3.695312 5.234375 -4.15625 C 6.234375 -4.613281 6.929688 -5.351562 7.328125 -6.375 C 7.722656 -7.40625 7.6875 -8.425781 7.21875 -9.4375 C 6.757812 -10.445312 6.015625 -11.132812 4.984375 -11.5 C 3.960938 -11.875 2.957031 -11.832031 1.96875 -11.375 Z M 1.96875 -11.375 "/></g></g></g><g fill="#212932" fill-opacity="1"><g transform="translate(228.643221, 256.112546)"><g><path d="M 4.28125 -9.765625 L 5.625 -10.71875 L 8 -7.359375 C 7.78125 -6.671875 7.425781 -5.988281 6.9375 -5.3125 C 6.457031 -4.644531 5.910156 -4.09375 5.296875 -3.65625 C 3.953125 -2.695312 2.5 -2.332031 0.9375 -2.5625 C -0.613281 -2.800781 -1.851562 -3.570312 -2.78125 -4.875 C -3.707031 -6.1875 -4.015625 -7.617188 -3.703125 -9.171875 C -3.390625 -10.722656 -2.539062 -11.988281 -1.15625 -12.96875 C -0.507812 -13.425781 0.203125 -13.757812 0.984375 -13.96875 C 1.765625 -14.175781 2.519531 -14.242188 3.25 -14.171875 L 3.203125 -12.421875 C 1.953125 -12.585938 0.820312 -12.3125 -0.1875 -11.59375 C -1.125 -10.9375 -1.691406 -10.066406 -1.890625 -8.984375 C -2.085938 -7.898438 -1.863281 -6.898438 -1.21875 -5.984375 C -0.570312 -5.078125 0.289062 -4.535156 1.375 -4.359375 C 2.46875 -4.191406 3.484375 -4.441406 4.421875 -5.109375 C 5.128906 -5.609375 5.679688 -6.316406 6.078125 -7.234375 Z M 4.28125 -9.765625 "/></g></g></g><g fill="#212932" fill-opacity="1"><g transform="translate(240.317697, 247.490831)"><g><path d="M 1.640625 -6.9375 L 4.28125 -4.296875 L 2.953125 -2.96875 L 0.359375 -5.546875 L -7.90625 -7.921875 L -6.5625 -9.265625 L -0.4375 -7.6875 L -2.09375 -13.75 L -0.734375 -15.109375 Z M 1.640625 -6.9375 "/></g></g></g><g fill="#212932" fill-opacity="1"><g transform="translate(125.218655, 154.26025)"><g><path d="M -2.8125 -14.359375 L -6.109375 -9.171875 L -3.640625 -7.609375 L -0.609375 -12.375 L 1.5 -11.015625 L -1.53125 -6.25 L 2.390625 -3.765625 L 0.671875 -1.0625 L -9.953125 -7.828125 L -4.9375 -15.71875 Z M -2.8125 -14.359375 "/></g></g></g><g fill="#212932" fill-opacity="1"><g transform="translate(131.890552, 143.844319)"><g><path d="M 6.09375 -6.4375 L 2.21875 -7.515625 L 2.15625 -7.4375 L 0.5 -5.6875 L 3.078125 -3.25 L 0.875 -0.921875 L -8.265625 -9.578125 L -4.40625 -13.65625 C -3.257812 -14.875 -2.097656 -15.550781 -0.921875 -15.6875 C 0.253906 -15.832031 1.351562 -15.421875 2.375 -14.453125 C 3.78125 -13.117188 4.238281 -11.640625 3.75 -10.015625 L 8.578125 -9.0625 Z M -1.328125 -7.421875 L 0.328125 -9.171875 C 0.804688 -9.679688 1.050781 -10.195312 1.0625 -10.71875 C 1.070312 -11.238281 0.84375 -11.722656 0.375 -12.171875 C -0.101562 -12.617188 -0.597656 -12.816406 -1.109375 -12.765625 C -1.617188 -12.710938 -2.113281 -12.429688 -2.59375 -11.921875 L -4.25 -10.171875 Z M -1.328125 -7.421875 "/></g></g></g><g fill="#212932" fill-opacity="1"><g transform="translate(141.968265, 133.465244)"><g><path d="M 3.296875 -14.640625 L -2.140625 -10.8125 L -0.703125 -8.765625 L 4.203125 -12.21875 L 5.640625 -10.171875 L 0.734375 -6.71875 L 2.203125 -4.640625 L 7.8125 -8.59375 L 9.265625 -6.53125 L 1.03125 -0.734375 L -6.21875 -11.03125 L 1.84375 -16.703125 Z M 3.296875 -14.640625 "/></g></g></g><g fill="#212932" fill-opacity="1"><g transform="translate(153.172457, 125.74724)"><g><path d="M 6.046875 -13.734375 L -0.03125 -11.03125 L 0.984375 -8.75 L 6.46875 -11.1875 L 7.5 -8.890625 L 2.015625 -6.453125 L 3.046875 -4.125 L 9.3125 -6.921875 L 10.34375 -4.625 L 1.15625 -0.515625 L -3.984375 -12.015625 L 5.015625 -16.03125 Z M 6.046875 -13.734375 "/></g></g></g><g fill="#212932" fill-opacity="1"><g transform="translate(165.650849, 120.327847)"><g><path d="M 8.84375 -12.875 L 4.09375 -3.546875 L 10.765625 -5.078125 L 11.328125 -2.609375 L 0.484375 -0.109375 L 0.03125 -2.109375 L 4.796875 -11.4375 L -1.546875 -9.984375 L -2.109375 -12.4375 L 8.390625 -14.859375 Z M 8.84375 -12.875 "/></g></g></g><g fill="#212932" fill-opacity="1"><g transform="translate(178.956547, 117.407098)"><g><path d="M 10.796875 -10.4375 L 4.140625 -10.21875 L 4.21875 -7.71875 L 10.21875 -7.921875 L 10.296875 -5.40625 L 4.296875 -5.203125 L 4.390625 -2.65625 L 11.25 -2.890625 L 11.328125 -0.375 L 1.265625 -0.046875 L 0.84375 -12.640625 L 10.703125 -12.953125 Z M 10.796875 -10.4375 "/></g></g></g><g fill="#212932" fill-opacity="1"><g transform="translate(192.860768, 117.355445)"><g/></g></g><g fill="#212932" fill-opacity="1"><g transform="translate(198.779232, 117.765343)"><g><path d="M 4.46875 -11.84375 L 9.703125 -10.453125 C 11.609375 -9.941406 13.015625 -8.960938 13.921875 -7.515625 C 14.828125 -6.066406 15.035156 -4.4375 14.546875 -2.625 C 14.066406 -0.832031 13.066406 0.460938 11.546875 1.265625 C 10.023438 2.078125 8.285156 2.21875 6.328125 1.6875 L 1.21875 0.328125 Z M 6.90625 -8.546875 L 4.96875 -1.3125 L 7.171875 -0.71875 C 8.117188 -0.46875 8.984375 -0.59375 9.765625 -1.09375 C 10.554688 -1.601562 11.09375 -2.390625 11.375 -3.453125 C 11.664062 -4.523438 11.582031 -5.484375 11.125 -6.328125 C 10.675781 -7.171875 9.960938 -7.726562 8.984375 -8 Z M 6.90625 -8.546875 "/></g></g></g><g fill="#212932" fill-opacity="1"><g transform="translate(213.392334, 121.862424)"><g><path d="M 7.890625 4.03125 L 7.828125 0.015625 L 7.75 -0.03125 L 5.59375 -1.125 L 3.984375 2.03125 L 1.125 0.578125 L 6.84375 -10.640625 L 11.859375 -8.09375 C 13.335938 -7.332031 14.3125 -6.40625 14.78125 -5.3125 C 15.25 -4.226562 15.160156 -3.0625 14.515625 -1.8125 C 13.640625 -0.0820312 12.351562 0.773438 10.65625 0.765625 L 11.125 5.671875 Z M 6.734375 -3.375 L 8.890625 -2.28125 C 9.515625 -1.957031 10.078125 -1.863281 10.578125 -2 C 11.085938 -2.132812 11.488281 -2.492188 11.78125 -3.078125 C 12.082031 -3.671875 12.132812 -4.203125 11.9375 -4.671875 C 11.75 -5.140625 11.34375 -5.535156 10.71875 -5.859375 L 8.5625 -6.953125 Z M 6.734375 -3.375 "/></g></g></g><g fill="#212932" fill-opacity="1"><g transform="translate(226.295678, 128.910241)"><g><path d="M 3.609375 2.625 L 1.015625 0.75 L 8.421875 -9.4375 L 11.015625 -7.5625 Z M 3.609375 2.625 "/></g></g></g><g fill="#212932" fill-opacity="1"><g transform="translate(232.40105, 133.217441)"><g><path d="M 15 0.671875 L 10.265625 -4.015625 L 8.5 -2.25 L 12.765625 1.984375 L 11 3.78125 L 6.734375 -0.453125 L 4.9375 1.359375 L 9.8125 6.1875 L 8.046875 7.96875 L 0.90625 0.890625 L 9.765625 -8.0625 L 16.765625 -1.125 Z M 15 0.671875 "/></g></g></g><g fill="#212932" fill-opacity="1"><g transform="translate(241.985388, 142.794494)"><g><path d="M 11.203125 -5.921875 L 14.1875 -1.40625 C 15.28125 0.238281 15.6875 1.898438 15.40625 3.578125 C 15.125 5.265625 14.203125 6.625 12.640625 7.65625 C 11.085938 8.6875 9.472656 9 7.796875 8.59375 C 6.128906 8.195312 4.738281 7.148438 3.625 5.453125 L 0.703125 1.046875 Z M 10.84375 -1.828125 L 4.609375 2.296875 L 5.875 4.203125 C 6.414062 5.015625 7.144531 5.492188 8.0625 5.640625 C 8.988281 5.785156 9.910156 5.550781 10.828125 4.9375 C 11.742188 4.332031 12.3125 3.5625 12.53125 2.625 C 12.757812 1.695312 12.59375 0.804688 12.03125 -0.046875 Z M 10.84375 -1.828125 "/></g></g></g><g clip-path="url(#a18fb47b9e)"><path fill="#000000" d="M 231.8125 161.992188 L 227.984375 159.796875 L 217.949219 165.570312 L 217.949219 157.847656 L 214.117188 155.628906 L 210.289062 157.847656 L 210.289062 169.988281 L 191.40625 180.894531 L 191.40625 159.105469 L 201.960938 153.039062 L 201.960938 148.621094 L 198.128906 146.425781 L 191.40625 150.273438 L 191.40625 138.726562 L 187.578125 136.507812 L 183.746094 138.726562 L 183.746094 150.273438 L 177.023438 146.425781 L 173.191406 148.621094 L 173.191406 153.039062 L 183.746094 159.105469 L 183.746094 180.894531 L 164.863281 169.988281 L 164.863281 157.847656 L 161.035156 155.628906 L 157.203125 157.847656 L 157.203125 165.570312 L 147.167969 159.796875 L 143.339844 161.992188 L 143.339844 166.410156 L 153.371094 172.207031 L 146.652344 176.082031 L 146.652344 180.5 L 150.480469 182.695312 L 161.035156 176.625 L 179.914062 187.507812 L 161.035156 198.386719 L 150.480469 192.316406 L 146.652344 194.515625 L 146.652344 198.929688 L 153.371094 202.804688 L 143.339844 208.601562 L 143.339844 212.996094 L 147.167969 215.214844 L 157.203125 209.417969 L 157.203125 217.164062 L 161.035156 219.386719 L 164.863281 217.164062 L 164.863281 205.023438 L 183.746094 194.117188 L 183.746094 215.90625 L 173.191406 221.976562 L 173.191406 226.390625 L 177.023438 228.589844 L 183.746094 224.738281 L 183.746094 236.285156 L 187.578125 238.507812 L 191.40625 236.285156 L 191.40625 224.738281 L 198.128906 228.589844 L 201.960938 226.390625 L 201.960938 221.976562 L 191.40625 215.90625 L 191.40625 194.117188 L 210.289062 205.023438 L 210.289062 217.164062 L 214.117188 219.386719 L 217.949219 217.164062 L 217.949219 209.417969 L 227.984375 215.214844 L 231.8125 212.996094 L 231.8125 208.601562 L 221.78125 202.804688 L 228.503906 198.929688 L 228.503906 194.515625 L 224.671875 192.316406 L 214.117188 198.386719 L 195.238281 187.507812 L 214.117188 176.625 L 224.671875 182.695312 L 228.503906 180.5 L 228.503906 176.082031 L 221.78125 172.207031 L 231.8125 166.410156 Z M 231.8125 161.992188 " fill-opacity="1" fill-rule="evenodd"/></g><g clip-path="url(#00a74a9f09)"><g clip-path="url(#dc62fad8eb)"><path fill="#212932" d="M 61.332031 61.332031 L 313.667969 61.332031 L 313.667969 313.667969 L 61.332031 313.667969 Z M 61.332031 61.332031 " fill-opacity="1" fill-rule="nonzero"/></g></g></svg>